<?xml version="1.0" encoding="utf-8"?>
<!-- Generator: Adobe Illustrator 19.0.1, SVG Export Plug-In . SVG Version: 6.00 Build 0)  -->
<!DOCTYPE svg PUBLIC "-//W3C//DTD SVG 1.1//EN" "http://www.w3.org/Graphics/SVG/1.1/DTD/svg11.dtd">
<svg version="1.1" id="Layer_1" xmlns="http://www.w3.org/2000/svg" xmlns:xlink="http://www.w3.org/1999/xlink" x="0px" y="0px"
	 viewBox="0 0 169.9 83.2" enable-background="new 0 0 169.9 83.2" xml:space="preserve">
<g>
	<path fill="#6AC8D7" d="M65.4,31.8c0,1.8,1.5,3.3,3.4,3.3c1.8,0,3.4-1.5,3.4-3.3c0-1.8-1.6-3.3-3.4-3.3
		C66.9,28.6,65.4,30,65.4,31.8z"/>
</g>
<g>
	<path fill="#222222" d="M32.4,22.4c1.1-0.3,2.1-0.5,3-0.5c1.1,0,2.1,0.3,2.8,1c0.2,0.2,0.4,0.3,0.5,0.5L84.9,3.9l72.5,30.6l1.5-3.5
		L85.6,0.1c-0.5-0.2-1-0.2-1.5,0L30.9,22.6C31.6,22.6,32.1,22.5,32.4,22.4z"/>
	<path fill="#222222" d="M143.2,54.6L84.9,79.3L23.1,53.2c-1.2,1-2.4,1.8-3.7,2.5L84.1,83c0.2,0.1,0.5,0.1,0.7,0.1s0.5,0,0.7-0.1
		l62.1-26.2C145.9,56.8,144.5,56.2,143.2,54.6z"/>
</g>
<g>
	<path fill="#6BD0DE" d="M28.8,42.1c0.4-0.9,1-1,1.7-0.3c0.3,0.4,0.6,0.7,0.6,1.1c0,0.2,0,0.6-0.3,1.2l-1.1,2.7
		C27.3,53,30.5,55,33.2,55c2.1,0,3.9-1.1,5.4-2.8c0.6,1.5,1.8,2.5,3.8,2.5c1.9,0,3.6-1.1,4.7-1.9c0.7-0.6,1-0.6,1.6,0.2
		c0.6,0.8,1.7,1.7,3.8,1.7c2.7,0,5-1.4,7-3.6c0.3,2.4,2.1,3.6,4.2,3.6c2.5,0,4.8-1.4,6.8-3.6c0.3,2.5,2,3.6,4.2,3.6
		c1.7,0,3.4-0.7,4.9-1.9c-0.3,0.9,0.1,1.4,1.2,1.4h2.6c1.3,0,2-0.4,2.4-1.6l3.5-8.5c0.2-0.7,0.8-1.4,1.4-1.9c1.1-1,2.2-1.4,2.8-1.4
		c0.6,0,0.9,0.3,0.9,0.7c0,0.5-0.5,1.7-1.5,4c-2.4,6-1.1,9.1,2.8,9.1c3.2,0,5.8-1.9,8.1-4.8c0.6,2.9,3.1,4.8,7.6,4.8
		c4.6,0,8.1-1.9,10.6-4.4c0.1,2.5,1.5,4.4,4.1,4.4c1.9,0,3.6-1.1,4.7-1.9c0.7-0.6,1-0.6,1.6,0.2c0.6,0.8,1.7,1.7,3.8,1.7
		c2.9,0,5.3-1.6,7.4-4c0.2,2.2,1.6,4,4.1,4c2,0,3.7-1.1,4.7-1.9c0.7-0.6,1-0.6,1.6,0.2c0.6,0.8,1.7,1.7,3.8,1.7
		c4.5,0,7.9-4,10.7-8.6c0.7-1.2-1.4-2.7-2.1-1.5c-2.6,4.3-4.8,6.4-6.1,6.4c-0.6,0-1.2-0.4,0.4-4.4l8.9-21.4c0.4-1,0-1.6-1.1-1.6H166
		c-1.3,0-2,0.4-2.4,1.6l-5.1,12.2c-0.3,0.8-0.7,0.9-1.3,0.2c-0.7-0.8-1.8-1.6-3.7-1.6c-4.4,0-7.4,4.7-8.8,9c-2.5,4.1-4.6,6-5.9,6
		c-0.5,0-1.2-0.3,0.5-4.4l3.5-8.6c0.4-0.9,0-1.4-1-1.1l-3.8,1.2c-1.2,0.4-1.5,0.3-2.3-0.7c-0.6-0.8-1.8-1.6-3.7-1.6
		c-4.6,0-7.5,4.7-8.8,8.9c-2.5,4.1-6.2,6.1-9.7,6.1c-2.3,0-3.3-0.8-3.6-1.6c-0.3-0.7,0.2-1.3,0.9-1.3c6.3,0.6,8.8-1.7,10.1-4.5
		c2.3-5.2-1.6-7.6-5.7-7.6c-6.2,0-9.6,4.7-10.8,8.9c-2.5,4.2-4.7,6.1-5.9,6.1c-0.6,0-1.2-0.5,0.5-4.4l1.5-3.8c0.7-1.8,1-2.9,1-3.8
		c0-1.8-1.2-3.1-3.6-3.1c-2,0-3.8,0.8-4.9,1.5c-0.6,0.4-0.9,0.1-0.6-0.5L97,25.2c0.4-1,0-1.6-1.1-1.6h-2.6c-1.3,0-2,0.4-2.4,1.6
		l-8.1,19.9c-2.4,4-4.6,5.9-5.8,5.9c-0.6,0-1.2-0.4,0.5-4.4l7.2-17.2c0.4-1,0-1.6-1.1-1.6h-2.6c-1.3,0-2,0.4-2.5,1.6l-6.5,15.5
		c-2.4,4.1-4.6,6.1-5.9,6.1c-0.6,0-1.2-0.4,0.5-4.4l3.5-8.6c0.4-1,0-1.6-1.1-1.6h-2.6c-1.3,0-2,0.4-2.5,1.6L60.9,45
		c-2.5,4.1-4.6,6-5.9,6c-0.5,0-1.2-0.3,0.5-4.4l3.5-8.6c0.4-0.9,0-1.4-1-1.1l-3.8,1.2c-1.2,0.4-1.5,0.3-2.3-0.7
		C51.1,36.8,50,36,48,36c-6.1,0-9,8-9.6,12.4c-1.3,1.9-2.3,2.8-2.8,2.8c-0.4,0-1.3-0.4,0.3-4.4l0.8-2c0.3-0.8,0.4-1.3,0.4-1.7
		c0-2.2-3.1-4-5.1-5.2c-0.8-0.5-1-1.2-0.7-2.1l0.1-0.2c0.3-0.9,0.1-1.4-0.7-1.8l-0.3-0.2c-0.6-0.3-1.5-0.2-2,0.2
		c-1.1,0.8-2.2,2.3-2.2,3.6c0,0.4,0.1,0.7,0.2,1c0.6,1.3,0.7,1.7,0,2.9c-3.4,5.8-9.2,10.2-11.8,10.1c0.1-0.1,0.1-0.2,0.2-0.3
		c1.9-3,8.5-20.3,8.5-20.3c0.5-1.1,1-1.4,2.1-1.3c1.5,0.1,4,0.2,4.9,0.2c4.3,0,6.2-1.2,7.2-2.6c0.7-1,0.2-1.7-0.7-2.5
		c-0.8-0.7-2.3-0.4-3.9,0c-0.7,0.2-1.6,0.3-2.9,0.3c-6.5,0-16.1-3.9-22.5-3.9c-4,0-8,2.8-7.4,6.3c0.2,0.7,1.1,1.2,1.6,0.7
		c1-2.8,4.5-2.6,5.9-2.4c2.4,0.2,5.5,1.5,9.4,2.3c1,0.2,1,0.9,0.7,2.3c-1,3.5-3.5,9.9-7.4,17.8C9,50.3,7.4,52,8.3,53.3
		c0.5,0.4,1.1,0.8,1.7,1.1c0,0,0,0,0,0c0,0,0,0,0,0c0.2,0.1,0.4,0.2,0.6,0.2C19,57.1,26.2,47.8,28.8,42.1z M154.8,40.9
		c0.6,0,1,0.3,1.2,0.7c0.2,0.4,0.3,1.1,0.1,1.5l-1.6,3.9c-0.2,0.5-0.8,1.3-1.2,1.7c-0.6,0.5-1.5,1.1-2.4,1.1c-0.7,0-1.1-0.3-1.1-1.2
		C149.8,46.7,152.2,40.9,154.8,40.9z M133.2,40.9c0.6,0,1,0.3,1.2,0.7c0.2,0.4,0.3,1.2,0.1,1.6l-1.6,3.8c-0.2,0.5-0.8,1.4-1.2,1.7
		c-0.6,0.6-1.5,1.2-2.4,1.2c-0.7,0-1.1-0.3-1.1-1.2C128.1,46.7,130.5,40.9,133.2,40.9z M111.2,43.5c0.7-1.2,2-2.7,3.5-2.7
		c1.2,0,0.9,0.9,0.6,1.5c-0.5,1.3-1.3,2.4-3.4,2.4C111.2,44.8,110.8,44.2,111.2,43.5z M49.3,40.9c0.6,0,1,0.3,1.2,0.7
		c0.2,0.4,0.3,1.2,0.1,1.6L49.1,47c-0.2,0.5-0.8,1.4-1.2,1.7c-0.6,0.6-1.5,1.2-2.4,1.2c-0.7,0-1.1-0.3-1.1-1.2
		C44.3,46.7,46.7,40.9,49.3,40.9z"/>
</g>
</svg>
