<?xml version="1.0" encoding="UTF-8" standalone="no"?>
<svg width="370px" height="335px" viewBox="0 0 370 335" version="1.1" xmlns="http://www.w3.org/2000/svg" xmlns:xlink="http://www.w3.org/1999/xlink">
    <!-- Generator: Sketch 3.6.1 (26313) - http://www.bohemiancoding.com/sketch -->
    <title>Artboard 37</title>
    <desc>Created with Sketch.</desc>
    <defs></defs>
    <g id="Page-1" stroke="none" stroke-width="1" fill="none" fill-rule="evenodd">
        <g id="Artboard-37" fill="#000000">
            <g id="Page-1" transform="translate(30.000000, 35.000000)">
                <path d="M208.9595,87.2508 C208.9595,93.1848 198.7835,105.5078 192.8505,105.5078 C192.8505,105.5078 176.7405,110.3408 148.8185,110.3408 C121.9695,110.3408 105.8595,105.5078 105.8595,105.5078 C99.9265,105.5078 89.7505,93.1848 89.7505,87.2508 L89.7505,51.8098 C89.7505,45.8768 94.5565,41.0698 100.4905,41.0698 L198.2205,41.0698 C204.1535,41.0698 208.9595,45.8768 208.9595,51.8098 L208.9595,87.2508 Z M198.2205,136.3848 C192.8835,136.3848 188.5545,132.0568 188.5545,126.7188 C188.5545,121.3818 192.8835,117.0528 198.2205,117.0528 C203.5575,117.0528 207.8865,121.3818 207.8865,126.7188 C207.8865,132.0568 203.5575,136.3848 198.2205,136.3848 L198.2205,136.3848 Z M182.1105,137.4588 C179.7375,137.4588 177.8145,135.5358 177.8145,133.1628 C177.8145,130.7888 179.7375,128.8668 182.1105,128.8668 C184.4835,128.8668 186.4065,130.7888 186.4065,133.1628 C186.4065,135.5358 184.4835,137.4588 182.1105,137.4588 L182.1105,137.4588 Z M116.6005,137.4588 C114.2265,137.4588 112.3035,135.5358 112.3035,133.1628 C112.3035,130.7888 114.2265,128.8668 116.6005,128.8668 C118.9735,128.8668 120.8955,130.7888 120.8955,133.1628 C120.8955,135.5358 118.9735,137.4588 116.6005,137.4588 L116.6005,137.4588 Z M100.4905,136.3848 C95.1525,136.3848 90.8245,132.0568 90.8245,126.7188 C90.8245,121.3818 95.1525,117.0528 100.4905,117.0528 C105.8275,117.0528 110.1555,121.3818 110.1555,126.7188 C110.1555,132.0568 105.8275,136.3848 100.4905,136.3848 L100.4905,136.3848 Z M117.1365,21.8958 C117.1365,19.1878 119.2895,16.9978 121.9475,16.9978 L176.7635,16.9978 C179.4205,16.9978 181.5735,19.1878 181.5735,21.8958 L181.5735,22.4798 C181.5735,25.1868 179.4205,27.3778 176.7635,27.3778 L121.9475,27.3778 C119.2895,27.3778 117.1365,25.1868 117.1365,22.4798 L117.1365,21.8958 Z M215.4035,22.0078 C215.4035,16.0738 176.7405,0.5288 149.8925,0.5288 C121.9695,0.5288 83.3075,16.0738 83.3075,22.0078 L83.3075,91.7678 C85.1585,93.4378 86.5275,98.9398 86.5275,100.9438 C86.5275,102.9468 85.1585,108.4508 83.3075,110.1208 L83.3075,143.3648 C83.3075,147.3388 85.4655,153.2248 88.6765,156.6718 L88.6765,172.4218 C88.6765,173.8878 89.6095,176.4048 90.7595,176.4048 C90.7595,176.4048 94.1005,177.7318 99.3135,177.7318 C104.7315,177.7318 108.0715,176.4048 108.0715,176.4048 C109.2215,176.4048 110.1555,173.8878 110.1555,172.4218 L110.1555,161.9988 C120.6215,163.3948 134.8615,164.8448 148.8185,164.8448 C163.3865,164.8448 177.9545,163.3838 188.5545,161.9818 L188.5545,172.4218 C188.5545,173.8878 189.4885,176.4048 190.6385,176.4048 C190.6385,176.4048 193.9785,177.7318 199.1915,177.7318 C204.6095,177.7318 207.9505,176.4048 207.9505,176.4048 C209.1005,176.4048 210.0335,173.8878 210.0335,172.4218 L210.0335,156.6718 C213.2455,153.2248 215.4035,147.3388 215.4035,143.3648 L215.4035,110.1208 C213.5515,108.4508 212.1825,102.9468 212.1825,100.9438 C212.1825,98.9398 213.5515,93.4378 215.4035,91.7678 L215.4035,22.0078 Z" id="Fill-50"></path>
                <path d="M291.0854,89.2811 C291.0854,77.5421 288.1914,66.4751 283.0794,56.7601 L273.5794,61.7501 C277.9084,69.9701 280.3614,79.3411 280.3614,89.2811 C280.3614,99.1341 277.9514,108.4251 273.6924,116.5921 L283.1964,121.5801 C288.2334,111.9261 291.0854,100.9331 291.0854,89.2811" id="Fill-51"></path>
                <path d="M270.2729,89.2811 C270.2729,80.2381 268.0439,71.7211 264.1019,64.2411 L254.5979,69.2291 C257.7599,75.2121 259.5489,82.0421 259.5489,89.2811 C259.5489,96.4381 257.8029,103.1831 254.7149,109.1171 L264.2209,114.0991 C268.0859,106.6781 270.2729,98.2371 270.2729,89.2811" id="Fill-52"></path>
                <path d="M250.5327,89.2811 C250.5327,82.9391 248.9657,76.9621 246.1997,71.7211 L236.6897,76.7101 C238.6817,80.4581 239.8087,84.7381 239.8087,89.2811 C239.8087,93.7381 238.7247,97.9371 236.8077,101.6361 L246.3127,106.6201 C249.0087,101.4321 250.5327,95.5361 250.5327,89.2811" id="Fill-53"></path>
                <path d="M7.3989,89.2811 C7.3989,77.5421 10.2939,66.4751 15.4049,56.7601 L24.9099,61.7501 C20.5769,69.9701 18.1279,79.3411 18.1279,89.2811 C18.1279,99.1341 20.5339,108.4251 24.7919,116.5921 L15.2879,121.5801 C10.2509,111.9261 7.3989,100.9331 7.3989,89.2811" id="Fill-54"></path>
                <path d="M28.2124,89.2811 C28.2124,80.2381 30.4414,71.7211 34.3834,64.2411 L43.8874,69.2291 C40.7294,75.2121 38.9414,82.0421 38.9414,89.2811 C38.9414,96.4381 40.6864,103.1831 43.7744,109.1171 L34.2704,114.0991 C30.3994,106.6781 28.2124,98.2371 28.2124,89.2811" id="Fill-55"></path>
                <path d="M47.9517,89.2811 C47.9517,82.9391 49.5197,76.9621 52.2907,71.7211 L61.7957,76.7101 C59.8087,80.4581 58.6807,84.7381 58.6807,89.2811 C58.6807,93.7381 59.7607,97.9371 61.6777,101.6361 L52.1727,106.6201 C49.4767,101.4321 47.9517,95.5361 47.9517,89.2811" id="Fill-56"></path>
                <path d="M0.0747,244.4627 C4.8907,248.6887 10.7877,250.7397 17.5477,250.7397 C27.3907,250.7397 33.6027,245.8747 33.6027,237.4227 C33.6027,231.1507 29.6357,225.2067 21.0867,224.1697 C18.9007,223.9117 17.1607,223.6537 15.9367,223.4557 C11.3027,222.7467 9.4387,220.1587 9.4387,217.5757 C9.4387,213.1777 12.8497,210.9827 17.0957,210.9827 C21.1507,210.9827 25.0827,212.3997 28.4167,214.5367 L32.2567,208.8017 C28.0997,206.0527 23.0847,204.0667 17.4187,204.0667 C7.9687,204.0667 2.5237,209.5687 2.5237,217.4467 C2.5237,224.1067 6.7487,229.2767 14.6527,230.3777 C17.0327,230.6997 18.6427,230.9577 20.7057,231.2147 C24.8237,231.7357 26.6877,234.1907 26.6877,237.4227 C26.6877,241.2407 23.2777,243.8227 17.6117,243.8227 C12.7207,243.8227 8.0917,242.0137 4.6387,239.2327 L0.0747,244.4627 Z" id="Fill-57"></path>
                <path d="M41.186,217.5975 L37.899,217.5975 L37.899,222.3665 L41.186,222.3665 L41.186,242.1115 C41.186,247.3295 44.44,250.2675 48.918,250.2675 L52.332,250.2675 L52.332,243.9955 L49.885,243.9955 C48.274,243.9955 47.565,243.3455 47.565,241.5255 L47.565,222.3665 L52.332,222.3665 L52.332,217.5975 L47.565,217.5975 L47.565,207.6735 L41.186,207.6735 L41.186,217.5975 Z" id="Fill-58"></path>
                <path d="M75.5532,250.2244 L81.9322,250.2244 L81.9322,227.8324 C81.9322,219.6324 76.5572,216.8884 68.5242,216.8884 C63.6262,216.8884 59.9852,218.1934 57.4352,221.7214 L62.6552,225.7274 C63.8192,223.8214 65.4302,223.1614 68.8452,223.1614 C73.5552,223.1614 75.5532,224.2834 75.5532,227.4404 L75.5532,230.9254 L66.4612,230.9254 C59.3952,230.9254 55.7392,235.2804 55.7392,240.5594 C55.7392,246.4284 60.0502,250.8044 67.3642,250.8044 C71.8152,250.8044 74.0712,249.7624 75.4242,247.4694 L75.5532,247.4694 L75.5532,250.2244 Z M75.5532,238.6844 C75.5532,243.9304 73.6842,244.5324 68.2012,244.5324 C63.7552,244.5324 62.0102,242.5394 62.0102,240.2794 C62.0102,237.8264 63.8192,236.2304 67.6862,236.2304 L75.5532,236.2304 L75.5532,238.6844 Z" id="Fill-59"></path>
                <path d="M90.5884,250.1922 L96.9674,250.1922 L96.9674,230.3132 C96.9674,225.4912 100.1254,223.4082 103.3464,223.4082 C105.0224,223.4082 106.1174,223.8582 107.6644,225.0342 L112.4324,219.4662 C110.4344,217.9682 108.2444,217.0282 105.6024,217.0282 C102.1214,217.0282 99.1584,218.2792 97.0964,220.7822 L96.9674,220.7822 L96.9674,217.4252 L90.5884,217.4252 L90.5884,250.1922 Z" id="Fill-60"></path>
                <path d="M116.3638,217.5975 L113.0768,217.5975 L113.0768,222.3665 L116.3638,222.3665 L116.3638,242.1115 C116.3638,247.3295 119.6178,250.2675 124.0958,250.2675 L127.5098,250.2675 L127.5098,243.9955 L125.0618,243.9955 C123.4518,243.9955 122.7428,243.3455 122.7428,241.5255 L122.7428,222.3665 L127.5098,222.3665 L127.5098,217.5975 L122.7428,217.5975 L122.7428,207.6735 L116.3638,207.6735 L116.3638,217.5975 Z" id="Fill-61"></path>
                <path d="M133.5464,239.4627 C133.5464,246.8517 139.1744,250.6647 144.3074,250.6647 C147.7234,250.6647 150.6874,249.4137 152.7484,246.9107 L152.8774,246.9107 L152.8774,250.2677 L159.2564,250.2677 L159.2564,217.5007 L152.8774,217.5007 L152.8774,236.9667 C152.8774,241.6807 150.1064,244.2857 146.4344,244.2857 C142.6954,244.2857 139.9264,241.6807 139.9264,237.1817 L139.9264,217.5007 L133.5464,217.5007 L133.5464,239.4627 Z" id="Fill-62"></path>
                <path d="M167.9136,263.617 L174.2926,263.617 L174.2926,246.911 C176.7406,249.161 179.3836,250.665 182.7336,250.665 C186.7286,250.665 189.5596,248.914 191.3736,246.535 C193.1236,244.286 193.6236,242.099 193.6236,233.879 C193.6236,225.593 193.1236,223.408 191.3736,221.158 C189.5596,218.779 186.7286,217.028 182.7336,217.028 C179.3836,217.028 176.3536,218.532 174.2926,220.718 L174.2926,217.426 L167.9136,217.426 L167.9136,263.617 Z M180.7356,244.286 C174.6146,244.286 174.2926,238.798 174.2926,234.024 C174.2926,228.976 174.6146,223.408 180.7356,223.408 C186.9226,223.408 187.2446,228.642 187.2446,233.879 C187.2446,239.125 186.9226,244.286 180.7356,244.286 L180.7356,244.286 Z" id="Fill-63"></path>
                <path d="M201.7427,250.1277 L221.1337,250.1277 C228.0707,250.1277 233.8967,245.1877 233.8967,237.2027 C233.8967,232.4877 231.4657,227.6447 226.4657,226.4687 L226.4657,226.3337 C231.4167,223.9177 232.8227,220.3567 232.8227,216.6997 C232.8227,209.6977 228.2107,204.5377 219.3497,204.5377 L201.7427,204.5377 L201.7427,250.1277 Z M219.2267,229.7327 C224.6447,229.7327 226.9807,233.0727 226.9807,236.7407 C226.9807,240.4077 224.6447,243.7477 219.4467,243.7477 L208.6597,243.7477 L208.6597,229.7327 L219.2267,229.7327 Z M218.7977,210.8107 C223.5557,210.8107 225.9067,213.7257 225.9067,217.1357 C225.9067,220.6097 223.5557,223.4617 218.5887,223.4617 L208.6597,223.4617 L208.6597,210.8107 L218.7977,210.8107 Z" id="Fill-64"></path>
                <path d="M240.4058,239.4627 C240.4058,246.8517 246.0338,250.6647 251.1668,250.6647 C254.5828,250.6647 257.5458,249.4137 259.6078,246.9107 L259.7368,246.9107 L259.7368,250.2677 L266.1158,250.2677 L266.1158,217.5007 L259.7368,217.5007 L259.7368,236.9667 C259.7368,241.6807 256.9668,244.2857 253.2928,244.2857 C249.5548,244.2857 246.7848,241.6807 246.7848,237.1817 L246.7848,217.5007 L240.4058,217.5007 L240.4058,239.4627 Z" id="Fill-65"></path>
                <path d="M271.0356,244.8543 C275.1646,248.8443 279.9376,250.8043 285.3556,250.8043 C293.1206,250.8043 298.8716,247.0783 298.8716,240.5903 C298.8716,235.2803 296.2456,231.0913 289.5166,230.6353 L283.9656,230.2443 C280.5986,229.9853 279.5406,228.5563 279.5406,227.1283 C279.5406,224.8523 280.9956,223.1613 285.2916,223.1613 C288.9276,223.1613 291.6336,224.3963 294.1836,226.2153 L298.1206,221.3993 C294.9946,218.6503 291.1716,216.8883 285.2916,216.8883 C278.2896,216.8883 273.1616,220.3523 273.1616,227.0593 C273.1616,232.7293 277.0376,235.9953 282.4456,236.4563 L288.3956,236.9773 C290.7106,237.1753 292.4926,237.9003 292.4926,240.2633 C292.4926,243.0873 289.7166,244.5323 285.8826,244.5323 C281.3886,244.5323 278.2896,243.0873 275.5396,240.2633 L271.0356,244.8543 Z" id="Fill-66"></path>
            </g>
        </g>
    </g>
</svg>